<?xml version="1.0" encoding="UTF-8" standalone="no"?>
<svg
   viewBox="0 0 566.12 165.41"
   version="1.1"
   id="svg38"
   sodipodi:docname="logo.svg"
   inkscape:version="1.2 (dc2aeda, 2022-05-15)"
   width="566.12"
   height="165.41"
   xmlns:inkscape="http://www.inkscape.org/namespaces/inkscape"
   xmlns:sodipodi="http://sodipodi.sourceforge.net/DTD/sodipodi-0.dtd"
   xmlns="http://www.w3.org/2000/svg"
   xmlns:svg="http://www.w3.org/2000/svg">
  <sodipodi:namedview
     id="namedview40"
     pagecolor="#505050"
     bordercolor="#eeeeee"
     borderopacity="1"
     inkscape:showpageshadow="0"
     inkscape:pageopacity="0"
     inkscape:pagecheckerboard="0"
     inkscape:deskcolor="#505050"
     showgrid="false"
     inkscape:zoom="1.1602183"
     inkscape:cx="286.15306"
     inkscape:cy="67.22873"
     inkscape:window-width="1251"
     inkscape:window-height="648"
     inkscape:window-x="1450"
     inkscape:window-y="2079"
     inkscape:window-maximized="0"
     inkscape:current-layer="svg38" />
  <defs
     id="defs4">
    <style
       id="style2">
            .cls-1{fill:#fff;}.cls-2{fill:#d0d2d3;}.cls-3{fill:#b4121b;}.cls-4{fill:#faaf3f;}.cls-5{fill:#00843f;}.cls-6{fill-rule:evenodd;}
        </style>
  </defs>
  <rect
     class="cls-1"
     width="566.12"
     height="164.62421"
     id="rect6"
     x="0"
     y="0"
     style="stroke-width:0.899623" />
  <path
     d="M 142.4,54.77 A 10.59,10.59 0 1 1 152.99,65.36 10.59,10.59 0 0 1 142.4,54.77 Z"
     id="path8" />
  <path
     class="cls-2"
     d="M 65.84,54.77 A 10.59,10.59 0 1 1 76.43,65.36 10.59,10.59 0 0 1 65.84,54.77 Z"
     id="path10" />
  <path
     class="cls-2"
     d="M 91.25,54.77 A 10.59,10.59 0 1 1 101.84,65.36 10.59,10.59 0 0 1 91.25,54.77 Z"
     id="path12" />
  <path
     class="cls-2"
     d="M 142.45,80.52 A 10.59,10.59 0 1 1 153.04,91.11 10.6,10.6 0 0 1 142.45,80.52 Z"
     id="path14" />
  <path
     class="cls-3"
     d="M 116.8,54.77 A 10.59,10.59 0 1 1 127.39,65.36 10.59,10.59 0 0 1 116.8,54.77 Z"
     id="path16" />
  <path
     class="cls-4"
     d="M 116.8,80.52 A 10.59,10.59 0 1 1 127.39,91.11 10.6,10.6 0 0 1 116.8,80.52 Z"
     id="path18" />
  <path
     class="cls-2"
     d="m 91.56,106.27 a 10.59,10.59 0 1 1 10.59,10.59 10.58,10.58 0 0 1 -10.59,-10.59 z"
     id="path20" />
  <path
     class="cls-5"
     d="m 116.8,106.27 a 10.59,10.59 0 1 1 10.59,10.59 10.59,10.59 0 0 1 -10.59,-10.59 z"
     id="path22" />
  <path
     class="cls-6"
     d="m 212.02,72.46 v -6.84 h -10.39 c -12.86,0 -16.44,-0.79 -16.44,12.47 v 38.35 h 7.78 v -44 z"
     id="path24" />
  <path
     class="cls-6"
     d="m 224.56,65.37 v 7.39 c 18.78,0 22.13,0.87 22.13,10.59 h -14.04 c -10.75,0 -16.95,2 -16.95,16.7 a 26.78,26.78 0 0 0 0.86,7.22 v 0 c 2.09,7.5 8,8.91 15.69,8.91 5.46,0 11.82,-0.21 14.31,-6.28 v 6.47 h 8 V 82.52 c 0,-17.49 -12.39,-17.15 -30,-17.15 z m 18.92,41.9 c -2.4,1.81 -6,1.87 -9.52,1.87 -3.92,0 -6.65,-0.15 -8.31,-1.87 v 0 c -1.35,-1.41 -2,-3.87 -2,-8.15 0,-8.11 3,-8.74 10.29,-8.69 5.49,0 12.4,0 12.4,0 v 9.36 c 0,3.88 -1.12,6.15 -2.88,7.48 v 0 z"
     id="path26" />
  <path
     class="cls-6"
     d="m 297.65,46.93 v 18.44 h -15.22 c -16.83,0 -18.44,10.56 -18.44,25.54 0,6.47 0.3,12.06 2,16.33 v 0 c 2.23,5.72 6.89,9.08 16.47,9.08 13.66,0 15.21,-7.18 15.21,-7.18 v 7.21 h 7.82 v -69.4 z m -4.17,60.34 c -1.86,1.25 -4.5,1.72 -8.24,1.72 -3.74,0 -6.65,-0.31 -8.62,-1.73 v 0 c -2.92,-2.1 -4,-6.63 -4,-16.17 0,-16.15 2.38,-18 12.64,-18 7,0 12.43,-0.07 12.42,0 0,2.87 0,13.42 0,18 0,9.14 -0.8,13.92 -4.15,16.17 v 0 z"
     id="path28" />
  <polygon
     class="cls-6"
     points="375.89,65.37 368.4,65.37 360.09,101.13 348.18,65.37 341.73,65.37 330.14,101.13 321.2,65.37 313.18,65.37 325.68,116.33 332.88,116.33 344.74,77.92 356.67,116.33 363.9,116.33 "
     id="polygon30" />
  <path
     class="cls-6"
     d="m 386.9,65.37 c 0,0 0,7.39 0,7.39 18.78,0 22.14,0.87 22.14,10.59 h -14.1 c -10.74,0 -16.94,2 -16.94,16.7 a 26.81,26.81 0 0 0 0.83,7.18 v 0 c 2.09,7.5 8,8.91 15.7,8.91 5.46,0 11.82,-0.21 14.3,-6.28 v 6.47 h 8 V 82.52 C 416.81,65.03 404.46,65.37 386.9,65.37 Z m 18.87,41.9 c -2.39,1.81 -6,1.87 -9.52,1.87 -3.91,0 -6.64,-0.15 -8.3,-1.87 v 0 c -1.35,-1.41 -2,-3.87 -2,-8.15 0,-8.11 3,-8.74 10.3,-8.69 5.49,0 12.41,0 12.41,0 v 9.36 c 0,3.88 -1.12,6.15 -2.88,7.48 v 0 z"
     id="path32" />
  <path
     class="cls-6"
     d="m 452.02,72.46 v -6.84 h -10.4 c -12.87,0 -16.44,-0.79 -16.44,12.47 v 38.35 h 7.78 v -44 z"
     id="path34" />
  <path
     class="cls-6"
     d="m 477.24,64.61 c -20.58,0 -27.23,27.54 -17.31,42.62 v 0 c 3.86,5.88 10.22,9.87 19.26,9.62 a 44.12,44.12 0 0 0 17.61,-4.18 c 0,0 0,-8.18 0,-8.2 a 30.09,30.09 0 0 1 -6.24,2.8 v 0 c -5.85,1.93 -13.93,3.15 -19.74,0 v 0 c -4.28,-2.32 -7.32,-7 -7.32,-15.51 h 34.06 c 0,0 4.08,-27.15 -20.32,-27.15 z m -13.68,19.81 c 0.62,-4.34 3.55,-12.91 14.1,-12.91 10.55,0 12.17,8.25 12.36,12.91 z"
     id="path36" />
</svg>
