<?xml version="1.0" encoding="UTF-8"?>
<svg xmlns="http://www.w3.org/2000/svg" width="1257" height="512" viewBox="0 0 1257 512" fill="none">
  <path d="M198.096 70.0432C196.039 77.4582 194.076 84.4796 192.015 91.8562C212.193 91.8562 232.048 92.69 251.807 91.6638C282.687 90.0601 322.531 112.863 332.935 155.992C337.409 174.538 336.176 192.968 331.261 211.258C324.187 237.577 314.545 262.755 298.434 285.054C275.967 316.15 245.373 331.767 207.187 331.989C156.368 332.285 105.546 332.064 54.7256 332.052C53.7452 332.052 52.7648 331.891 51.1809 331.752C84.9662 221.011 118.673 110.527 152.393 0C174.344 0 195.978 0 218.025 0C211.368 23.3767 204.779 46.5132 198.096 70.0432ZM267.159 217.473C268.688 210.837 270.679 204.269 271.66 197.553C274.829 175.853 265.939 158.99 247.01 151.373C241.084 148.989 234.531 147.279 228.188 146.995C212.387 146.289 196.538 146.725 180.716 146.364C176.995 146.279 175.965 147.831 175.099 150.928C166.327 182.291 157.435 213.619 148.576 244.957C145.511 255.8 142.445 266.641 139.353 277.572C158.185 277.572 176.507 278.022 194.792 277.403C205.804 277.031 216.404 273.719 226.251 268.53C247.001 257.594 259.508 239.952 267.159 217.473Z" fill="#C41402"></path>
  <path d="M862 415.48C716.364 415.48 571.228 415.48 425.326 415.48C426.197 413.779 426.737 412.496 427.468 411.331C437.286 395.695 447.199 380.117 456.9 364.409C458.508 361.805 460.223 360.917 463.244 360.917C714.873 360.988 966.501 360.982 1218.13 360.982C1219.12 360.982 1220.11 360.982 1221.82 360.982C1219.78 367.76 1217.87 374.175 1215.93 380.583C1212.86 390.758 1209.54 400.868 1206.8 411.131C1205.7 415.224 1203.47 415.549 1199.95 415.545C1120.46 415.461 1040.97 415.48 961.486 415.48C928.49 415.48 895.495 415.48 862 415.48Z" fill="#C51604"></path>
  <path d="M825.208 229.171C829.442 196.361 840.933 166.943 861.034 141.129C884.087 111.523 913.694 92.4738 951.251 87.3588C975.515 84.0543 999.525 86.024 1022.38 95.3893C1051.88 107.482 1067.44 130.511 1071.92 161.458C1075.03 182.918 1071.52 203.891 1066.56 224.748C1065.58 228.859 1063.19 228.481 1060.36 228.48C1005.53 228.473 950.695 228.475 895.862 228.475C893.864 228.475 891.865 228.475 889.899 228.475C882.737 252.331 888.412 279.994 917.21 286.812C944.744 293.332 966.783 284.893 983.018 261.85C986.284 257.215 989.811 255.74 995.363 255.846C1014.5 256.21 1033.64 255.986 1053.88 255.986C1052.09 259.513 1050.67 262.411 1049.17 265.264C1038.62 285.228 1025.45 302.966 1006.64 316.056C986.153 330.311 962.974 336.067 938.568 337.658C919.39 338.908 900.29 338.33 881.661 332.637C849.491 322.808 827.562 295.826 825.128 261.999C824.356 251.261 825.096 240.415 825.208 229.171ZM931.5 186.656C957.237 186.656 982.974 186.656 1008.95 186.656C1008.95 179.807 1009.43 173.484 1008.85 167.259C1007.34 150.956 997.819 139.927 982.344 137.158C961.157 133.366 941.699 137.731 924.763 151.442C913.281 160.737 906.047 173.046 899.839 186.656C910.542 186.656 920.521 186.656 931.5 186.656Z" fill="#C41403"></path>
  <path d="M800.257 213.204C788.7 251.949 777.308 290.322 765.748 328.645C765.327 330.038 763.271 331.907 761.96 331.92C741.153 332.126 720.343 332.065 698.745 332.065C701.081 324.052 703.283 316.512 705.477 308.969C718.419 264.479 731.361 219.988 744.291 175.494C744.754 173.9 745.118 172.276 745.489 170.656C749.585 152.785 740.512 140.214 722.016 138.698C697.075 136.653 678.437 148.03 663.7 167.051C652.062 182.072 646.31 199.766 641.02 217.686C630.113 254.635 619.034 291.533 608.017 328.45C607.686 329.559 607.265 330.642 606.86 331.812C585.167 331.812 563.573 331.812 541.427 331.812C544.777 320.297 547.986 309.149 551.263 298.02C570.875 231.425 590.535 164.844 610.044 98.2189C611.236 94.1482 612.732 92.4235 617.375 92.5143C634.863 92.8562 652.362 92.651 669.857 92.6507C671.471 92.6507 673.084 92.6507 675.108 92.6507C671.81 103.46 668.697 113.663 665.184 125.176C671.633 119.432 676.676 114.391 682.265 110.052C711.233 87.5603 743.984 81.3701 779.334 89.1577C803.841 94.5569 817.09 112.596 817.697 138.357C817.984 150.558 815.254 162.108 811.904 173.625C808.101 186.701 804.233 199.759 800.257 213.204ZM665.534 124.945C665.439 125.046 665.273 125.144 665.27 125.247C665.267 125.35 665.427 125.458 665.515 125.564C665.609 125.464 665.704 125.364 665.534 124.945Z" fill="#C41402"></path>
  <path d="M361.766 152.223C359.894 132.257 358.054 112.751 356.185 92.9341C378.764 92.9341 401.037 92.9341 424.126 92.9341C426.074 149.513 428.029 206.274 430.027 264.318C431.521 261.91 432.456 260.503 433.293 259.039C464.162 205.06 495.057 151.096 525.796 97.0439C527.697 93.7018 529.662 92.5099 533.513 92.5483C554.808 92.7603 576.107 92.6498 598.316 92.6498C592.269 102.006 586.624 110.743 580.978 119.479C527.264 202.593 473.602 285.741 419.748 368.765C414.882 376.265 409.151 383.295 403.179 389.968C391.689 402.805 377.089 410.311 360.134 413.254C336.825 417.3 313.405 415.735 289.26 415.156C294.591 396.694 299.729 378.903 304.835 361.222C315.476 361.222 325.761 361.416 336.036 361.172C348.653 360.872 358.592 355.208 366.351 345.339C378.316 330.12 378.158 330.181 376.351 311.262C373.076 276.975 370.091 242.66 366.96 208.359C365.265 189.797 363.52 171.241 361.766 152.223Z" fill="#C41402"></path>
  <path d="M1126.6 147.387C1127.64 143.836 1128.52 140.657 1129.54 136.998C1115.18 136.998 1101.27 136.998 1086.65 136.998C1089.52 127.975 1092.22 119.508 1094.92 111.042C1096.48 106.137 1098.29 101.292 1099.53 96.3048C1100.3 93.1875 1101.88 92.5589 1104.79 92.5919C1117.28 92.7336 1129.77 92.6523 1142.85 92.6523C1149.91 68.5091 1156.97 44.3522 1164.04 20.1567C1186.1 20.1567 1207.88 20.1567 1230.12 20.1567C1223.1 44.3092 1216.16 68.1842 1209.06 92.5966C1224.9 92.5966 1240.29 92.5966 1256.25 92.5966C1251.43 107.676 1246.81 122.178 1242.11 136.898C1226.37 136.898 1210.92 136.898 1195.38 136.898C1185.21 171.932 1175.06 206.665 1165.08 241.445C1163.03 248.597 1160.79 255.847 1160.07 263.192C1159.2 272.084 1164.93 277.539 1173.99 277.613C1196.31 277.797 1218.64 277.788 1240.96 277.856C1242.58 277.861 1244.2 277.857 1246.4 277.857C1240.46 296.201 1234.69 314.004 1228.84 332.063C1225.98 332.063 1223.33 332.063 1220.68 332.063C1189.53 332.062 1158.38 332.115 1127.22 332.033C1116.2 332.003 1105.63 330.221 1097.08 322.365C1086.75 312.862 1084.03 300.582 1086.65 287.626C1089.77 272.201 1094.2 257.014 1098.58 241.876C1107.68 210.451 1117.13 179.126 1126.6 147.387Z" fill="#C41402"></path>
  <path d="M45.3552 389.401C41.8096 380.235 40.3242 371.122 40.9602 361.329C120.284 361.329 199.521 361.329 279.188 361.329C278.439 363.951 277.757 366.481 276.996 368.987C272.65 383.295 268.228 397.581 263.978 411.918C263.195 414.557 262.067 415.554 259.161 415.549C201.996 415.452 144.83 415.663 87.6659 415.368C68.8521 415.271 53.7106 407.926 45.3552 389.401Z" fill="#C51604"></path>
  <path d="M515.334 497.13C517.723 489.277 520.077 481.83 522.182 474.313C523.417 469.902 521.91 467.574 517.432 468.049C512.896 468.529 508.438 470.144 504.087 471.667C503.065 472.024 502.36 473.926 501.935 475.254C498.997 484.436 496.157 493.648 493.316 502.861C490.634 511.558 490.651 511.563 481.175 510.466C484.573 499.302 487.963 488.197 491.332 477.085C493.782 469.002 491.489 466.727 483.21 468.341C476.071 469.733 471.593 472.855 469.874 480.647C467.629 490.823 463.966 500.687 460.901 510.727C457.644 510.727 454.671 510.727 451.165 510.727C454.308 500.346 457.352 490.232 460.435 480.129C462.181 474.407 464.197 468.759 465.703 462.976C466.782 458.83 469.861 460.476 472.168 460.431C473.344 460.409 474.546 461.791 476.772 463.189C484.521 460.765 493.897 455.479 503.092 464.064C508.247 462.616 513.573 460.892 519.016 459.697C521.364 459.181 524.004 459.472 526.42 459.904C530.722 460.673 533.268 463.406 533.1 467.883C532.995 470.67 532.473 473.509 531.686 476.192C528.83 485.923 525.493 495.522 522.935 505.326C521.729 509.948 519.602 511.718 515.042 510.887C513.92 510.683 512.756 510.715 511.323 510.619C512.659 506.095 513.928 501.801 515.334 497.13Z" fill="#515151"></path>
  <path d="M368.681 502.426C372.74 489.166 376.833 476.333 380.495 463.377C381.61 459.432 384.267 460.203 386.707 460.407C388.074 460.521 389.347 461.744 391.901 463.148C399.562 460.667 408.94 455.492 418.052 464.036C423.463 462.55 428.925 460.483 434.571 459.618C445.582 457.932 450.267 463.594 447.145 474.325C444.128 484.698 440.615 494.936 437.92 505.389C436.7 510.117 434.427 511.634 429.96 510.884C428.843 510.697 427.691 510.714 426.248 510.615C429.773 499.097 433.26 487.832 436.663 476.541C438.866 469.23 436.435 466.783 428.716 468.223C421.784 469.516 416.741 472.014 415.028 480.134C412.841 490.495 409.059 500.519 405.95 510.734C402.704 510.734 399.729 510.734 396.102 510.734C398.967 501.318 401.754 492.2 404.512 483.072C405.474 479.889 406.392 476.691 407.275 473.485C408.196 470.138 406.677 467.919 403.429 468.139C399.527 468.403 395.709 469.736 391.823 470.423C386.886 471.295 386.724 475.478 385.629 479.023C382.389 489.506 379.178 499.997 375.904 510.652C372.699 510.652 369.601 510.652 366.206 510.652C367.035 507.877 367.792 505.341 368.681 502.426Z" fill="#515151"></path>
  <path d="M20.0448 447.721C20.6261 444.706 21.8332 443.482 24.8501 443.597C32.8289 443.903 40.828 443.646 48.811 443.884C63.7148 444.327 71.3212 453.066 68.6364 467.766C67.2843 475.169 64.7749 482.608 61.4149 489.345C55.0143 502.18 43.9918 509.388 29.7001 510.47C20.2851 511.182 10.7724 510.604 0.831543 510.604C7.24335 489.654 13.5985 468.889 20.0448 447.721ZM26.0946 502.676C34.2824 502.136 42.0728 500.39 47.4871 493.604C54.2187 485.166 57.7461 475.395 57.9495 464.587C58.0746 457.935 54.8462 453.846 48.1541 452.85C41.9589 451.929 35.6273 451.924 29.356 451.516C24.0703 468.824 18.9874 485.469 13.7295 502.686C17.943 502.686 21.5605 502.686 26.0946 502.676Z" fill="#505050"></path>
  <path d="M1137.08 501.387C1131.7 482.144 1148.9 459.617 1169.06 459.022C1173.05 458.904 1177.04 459.005 1181.79 459.005C1183.19 454.486 1185.09 449.545 1186.19 444.431C1187.18 439.826 1189.38 437.931 1194.01 438.82C1195.13 439.036 1196.31 438.968 1197.87 439.053C1192.75 455.938 1187.71 472.593 1182.64 489.238C1180.85 495.113 1179.12 501.011 1177.07 506.796C1176.56 508.243 1174.98 510.29 1173.79 510.362C1165.88 510.843 1157.9 511.318 1150 510.879C1144.25 510.56 1139.78 507.172 1137.08 501.387ZM1155.35 472.685C1152.79 477.452 1149.73 482.031 1147.79 487.04C1145.87 492.001 1145.86 497.398 1150.43 501.291C1155.38 505.506 1161.41 504.211 1167.17 503.711C1167.74 503.661 1168.5 502.713 1168.71 502.038C1172.23 490.673 1175.68 479.286 1179.28 467.421C1170.45 466.094 1162.56 466.02 1155.35 472.685Z" fill="#525252"></path>
  <path d="M105.655 479.685C111.411 480.496 110.19 476.036 110.935 473.447C111.798 470.444 110.597 467.749 107.268 467.692C100.175 467.569 93.0716 467.979 85.9741 468.225C84.8459 468.264 83.7274 468.583 82.3596 468.814C82.3903 463.547 83.9196 460.141 89.7677 460.163C97.0573 460.191 104.379 459.513 111.63 459.995C119.772 460.536 123.066 464.938 121.016 472.869C117.904 484.907 114.041 496.753 110.343 508.632C110.051 509.57 108.578 510.748 107.622 510.777C98.1744 511.065 88.662 511.838 79.2849 511.061C70.3222 510.319 67.7147 505.477 69.8512 496.775C72.3451 486.618 79.5864 480.793 91.2299 479.92C95.8639 479.573 100.537 479.745 105.655 479.685ZM82.4352 503.003C88.3257 503.454 94.2129 503.966 100.111 504.28C100.847 504.319 102.097 503.473 102.332 502.775C104.042 497.701 105.554 492.56 107.464 486.349C100.258 486.961 94.046 486.87 88.1305 488.149C81.0096 489.689 78.132 497.048 82.4352 503.003Z" fill="#515151"></path>
  <path d="M182.637 480.184C188.564 479.958 194.104 479.321 199.537 479.828C204.755 480.315 204.119 476.561 204.826 473.841C205.645 470.687 204.643 467.733 201.012 467.666C193.91 467.535 186.796 467.996 179.688 468.258C178.573 468.299 177.467 468.578 176.146 468.779C176.19 463.203 178.361 460.138 183.946 460.105C191.088 460.063 198.255 459.517 205.364 459.953C213.491 460.452 216.961 464.867 214.942 472.736C211.847 484.798 207.92 496.648 204.239 508.555C203.96 509.455 202.843 510.741 202.097 510.754C191.976 510.927 181.802 511.535 171.746 510.726C164.404 510.135 161.86 505.029 163.425 497.709C165.612 487.472 172.221 482.076 182.637 480.184ZM197.043 500.372C198.343 496.041 199.644 491.711 201.049 487.032C195.841 487.032 191.209 486.31 186.938 487.243C182.978 488.107 178.855 490.117 175.83 492.786C173.304 495.014 172.459 499.034 175.357 502.229C177.683 504.794 192.719 505.888 195.557 503.762C196.259 503.236 196.463 502.046 197.043 500.372Z" fill="#515151"></path>
  <path d="M729.545 508.251C724.271 500.718 727.623 488.504 736.749 483.792C741.31 481.437 746.796 480.53 751.98 479.824C756.714 479.179 761.606 479.687 766.626 479.687C766.902 479.186 767.306 478.663 767.498 478.071C770.31 469.426 768.776 466.945 759.776 466.962C753.333 466.975 746.89 467.823 740.453 468.298C740.176 462.41 740.928 460.905 746.494 460.47C754.089 459.875 761.77 459.554 769.364 459.993C777.219 460.448 780.729 464.966 778.796 472.51C775.662 484.733 771.696 496.745 767.957 508.808C767.697 509.649 766.428 510.742 765.607 510.759C755.822 510.968 746.029 511.146 736.246 510.95C734.093 510.907 731.97 509.367 729.545 508.251ZM745.97 487.954C744.253 488.928 741.829 489.493 740.974 490.967C739.407 493.669 737.66 497.095 738.128 499.857C738.44 501.704 742.3 503.798 744.837 504.23C749.021 504.941 753.424 504.502 757.723 504.293C758.566 504.252 759.805 503.206 760.091 502.363C761.761 497.433 763.202 492.426 765.019 486.464C758.285 486.951 752.529 487.368 745.97 487.954Z" fill="#505050"></path>
  <path d="M353.093 500.943C345.589 508.531 336.991 512.375 326.495 511.909C315.725 511.432 309.64 505.218 309.819 494.425C310.177 472.865 329.131 456.154 349.426 459.505C360.09 461.265 365.273 468.338 363.636 478.99C362.368 487.237 359.076 494.548 353.093 500.943ZM325.976 503.73C328.741 503.863 331.648 504.615 334.249 504.023C345.566 501.445 349.684 492.507 352.315 482.509C353.575 477.725 354.242 472.645 350.036 469.085C345.488 465.236 340.017 466.093 334.975 468.314C332.621 469.351 330.381 471.063 328.625 472.964C323.237 478.793 320.827 486.027 320.286 493.78C320.012 497.706 321.441 501.318 325.976 503.73Z" fill="#525252"></path>
  <path d="M861.921 467.756C870.378 460.49 879.804 457.825 890.434 459.717C899.419 461.316 903.99 466.96 903.849 476.044C903.556 494.96 886.972 511.851 868.677 511.869C854.295 511.884 847.27 503.332 850.284 489.156C852.005 481.056 855.435 473.745 861.921 467.756ZM881.579 466.707C875.064 466.965 869.749 469.946 866.756 475.458C863.957 480.614 861.792 486.344 860.589 492.082C858.832 500.458 864.917 505.898 873.353 504.35C883.64 502.462 891.957 491.699 892.995 478.931C893.671 470.632 890.753 467.251 881.579 466.707Z" fill="#525252"></path>
  <path d="M599.246 494.062C602.061 484.951 604.726 476.213 607.426 467.486C609.697 460.148 609.716 460.154 617.933 460.417C618.049 461.52 618.171 462.679 618.301 463.919C618.946 463.863 619.434 463.886 619.886 463.771C625.657 462.301 631.346 460.135 637.206 459.473C647.636 458.294 652.602 464.523 649.68 474.608C646.213 486.572 642.414 498.441 638.684 510.598C635.586 510.598 632.484 510.598 628.737 510.598C631.774 500.648 634.772 490.892 637.719 481.121C638.486 478.576 639.305 476.017 639.719 473.404C640.217 470.265 638.603 467.59 635.479 468.016C629.132 468.882 622.865 470.474 616.663 472.129C615.75 472.373 615.197 474.548 614.766 475.92C611.14 487.48 607.581 499.062 603.978 510.714C600.799 510.714 597.837 510.714 594.329 510.714C595.975 505.111 597.542 499.775 599.246 494.062Z" fill="#515151"></path>
  <path d="M267.093 480.208C266.984 480.949 266.965 481.284 266.899 481.608C263.43 498.466 273.429 503.865 287.318 503.586C291.084 503.51 294.838 502.791 298.627 502.364C298.311 509.651 297.778 510.669 290.999 511.182C285.084 511.63 278.989 511.782 273.163 510.864C261.423 509.012 255.165 501.093 255.15 489.393C255.112 458.573 287.589 434.838 317.197 444.437C316.405 446.902 315.612 449.37 314.79 451.926C309.788 451.577 304.99 450.773 300.242 450.998C285.027 451.717 274.9 459.764 269.187 473.652C268.368 475.642 267.829 477.746 267.093 480.208Z" fill="#515151"></path>
  <path d="M914.769 482.504C916.841 475.769 918.992 469.468 920.657 463.041C921.728 458.909 924.777 460.375 927.079 460.446C928.37 460.486 929.615 462.034 931.524 463.345C936.059 462.257 941.769 460.386 947.625 459.589C959.533 457.969 964.654 464.17 961.243 475.603C957.777 487.219 954.187 498.799 950.586 510.609C947.402 510.609 944.295 510.609 940.648 510.609C943.586 500.867 946.456 491.368 949.313 481.864C949.982 479.64 950.712 477.427 951.235 475.167C952.446 469.938 950.528 467.201 945.155 467.863C939.775 468.526 934.472 470.163 929.297 471.864C928.039 472.278 927.058 474.503 926.557 476.088C922.908 487.618 919.414 499.198 915.888 510.705C912.512 510.705 909.539 510.705 906.135 510.705C909.026 501.254 911.834 492.069 914.769 482.504Z" fill="#515151"></path>
  <path d="M569.508 507.153C562.569 510.112 555.485 512.5 547.793 511.276C541.085 510.21 537.941 506.203 539.672 499.623C543.125 486.488 547.219 473.521 551.056 460.461C554.5 460.461 557.468 460.461 561.075 460.461C558.098 470.192 555.191 479.635 552.326 489.092C551.508 491.791 550.604 494.489 550.114 497.254C549.473 500.877 551.131 503.567 554.914 502.959C560.574 502.05 566.155 500.474 571.633 498.751C572.733 498.405 573.492 496.214 573.957 494.733C576.792 485.707 579.485 476.636 582.248 467.587C584.752 459.388 584.765 459.392 594.261 460.861C589.168 477.527 584.1 494.116 578.731 511.688C575.73 510.751 573.018 509.904 570.538 508.451C570.35 507.614 569.929 507.384 569.508 507.153Z" fill="#525252"></path>
  <path d="M992.109 490.591C987.427 489.218 982.986 488.338 978.846 486.698C973.209 484.464 971.471 480.504 973.054 474.633C974.622 468.817 978.373 464.752 983.765 462.201C991.263 458.654 1005.78 458.287 1014.17 461.453C1013.49 463.645 1012.8 465.851 1012.03 468.336C1007.66 467.872 1003.41 466.877 999.221 467.125C994.865 467.382 990.439 468.457 986.339 469.974C984.836 470.53 983.373 473.393 983.408 475.174C983.433 476.48 985.724 478.291 987.368 478.907C991.393 480.413 995.699 481.154 999.765 482.569C1007.43 485.236 1009.81 490.049 1006.28 497.269C1004.47 500.971 1001.54 504.752 998.121 506.929C987.078 513.96 975.042 512.287 962.546 509.935C963.468 506.979 964.198 504.638 964.868 502.49C971.012 503.006 976.928 503.945 982.824 503.831C986.315 503.764 990.155 502.68 993.161 500.905C998.153 497.958 997.645 493.811 992.109 490.591Z" fill="#525252"></path>
  <path d="M1051.12 510.866C1049.15 510.866 1047.67 510.866 1045.37 510.866C1047.49 503.797 1049.45 497.196 1051.45 490.612C1055.61 476.946 1060.04 463.354 1063.86 449.592C1065.16 444.896 1067.16 442.795 1072 443.652C1073.11 443.85 1074.29 443.682 1076.23 443.682C1070.28 463.247 1064.47 482.335 1058.45 502.127C1068.77 502.127 1078.48 502.127 1088.25 502.127C1087.37 510.866 1087.37 510.866 1079.59 510.866C1070.26 510.865 1060.93 510.866 1051.12 510.866Z" fill="#515151"></path>
  <path d="M1109.17 481.001C1110.56 476.525 1111.83 472.434 1113.26 467.836C1109.67 467.836 1106.57 467.836 1102.77 467.836C1103.7 464.989 1104.44 462.707 1105.14 460.551C1115.73 459.766 1116.15 459.872 1118.62 449.964C1120.32 443.146 1125.94 444.717 1131.04 441.933C1129.8 446.008 1128.94 448.779 1128.12 451.563C1127.33 454.239 1126.6 456.929 1125.69 460.148C1130.45 460.148 1134.72 460.148 1139.86 460.148C1138.99 463.015 1138.32 465.25 1137.6 467.629C1132.82 467.629 1128.35 467.629 1123.19 467.629C1120.04 478.233 1116.84 488.801 1113.79 499.409C1113.02 502.06 1114.67 503.006 1117.09 502.997C1119.91 502.987 1122.72 502.995 1126.33 502.995C1125.48 505.909 1124.77 508.329 1124.07 510.707C1119.36 510.707 1115.04 510.874 1110.74 510.669C1103.75 510.335 1101.62 507.442 1103.43 500.481C1105.1 494.062 1107.17 487.747 1109.17 481.001Z" fill="#525252"></path>
  <path d="M149.542 510.871C145.596 510.813 142.09 510.903 138.607 510.662C131.873 510.196 129.73 507.316 131.397 500.725C132.618 495.895 134.258 491.172 135.702 486.399C137.521 480.384 139.331 474.366 141.302 467.826C137.715 467.826 134.615 467.826 131.464 467.826C132.492 460.341 132.5 460.129 139.143 460.375C142.574 460.503 144.533 459.597 144.979 456.072C145.081 455.262 145.636 454.502 145.698 453.697C146.277 446.067 151.227 443.461 158.769 442.829C157.126 448.49 155.554 453.907 153.778 460.025C158.494 460.025 162.841 460.025 167.229 460.025C166.582 467.708 166.582 467.708 159.756 467.711C151.281 467.715 151.295 467.719 148.876 475.755C146.817 482.598 144.688 489.42 142.646 496.268C140.805 502.441 141.198 502.964 147.398 503.002C149.525 503.014 151.652 503.004 153.778 503.004C154.163 503.417 154.548 503.831 154.933 504.245C153.286 506.453 151.639 508.661 149.542 510.871Z" fill="#525252"></path>
  <path d="M805.388 479.335C803.374 485.908 801.564 492.125 799.628 498.302C798.596 501.593 799.716 503.05 803.096 503.006C805.915 502.969 808.734 502.998 812.168 502.998C811.256 505.883 810.485 508.319 809.727 510.72C805.562 510.72 801.739 510.832 797.926 510.698C789.023 510.384 786.999 507.617 789.507 498.981C792.055 490.209 794.807 481.496 797.466 472.756C797.898 471.338 798.31 469.914 798.891 467.957C795.496 467.794 792.339 467.642 789.212 467.491C789.167 462.129 791.032 459.217 796.618 460.285C800.262 460.982 802.25 459.371 802.772 455.767C802.867 455.111 803.035 454.461 803.227 453.825C805.883 445.023 805.885 445.023 816.382 442.674C814.731 448.496 813.194 453.922 811.422 460.172C816.228 460.172 820.548 460.172 825.059 460.172C824.858 465.809 823.194 468.212 817.557 467.854C808.868 467.303 808.842 467.711 805.388 479.335Z" fill="#525252"></path>
  <path d="M716.545 467.32C703.184 469.219 696.026 475.923 693.63 488.462C691.93 497.358 696.179 503.105 705.284 503.773C709.701 504.097 714.162 503.829 718.69 503.829C718.775 508.729 716.389 511.628 710.843 511.487C706.043 511.365 701.144 511.804 696.464 510.99C686.215 509.208 681.474 502.373 682.549 492.019C684.653 471.732 701.669 457.802 722.504 459.351C725.299 459.559 728.078 459.975 731.641 460.384C730.891 463.061 730.254 465.338 729.719 467.246C725.169 467.246 721.067 467.246 716.545 467.32Z" fill="#525252"></path>
  <path d="M675.751 470.671C671.586 484.187 667.558 497.326 663.483 510.62C660.247 510.62 657.177 510.62 653.619 510.62C658.608 494.264 663.235 478.182 668.714 462.395C669.337 460.598 674.74 460.46 679.039 459.236C677.675 464.02 676.781 467.157 675.751 470.671Z" fill="#525252"></path>
  <path d="M838.326 486.285C835.789 494.616 833.385 502.568 830.937 510.665C827.672 510.665 824.558 510.665 821.003 510.665C825.939 494.589 830.754 478.726 835.774 462.928C836.131 461.805 837.893 460.668 839.178 460.406C841.235 459.986 843.441 460.294 846.298 460.294C843.576 469.186 841.018 477.546 838.326 486.285Z" fill="#525252"></path>
  <path d="M842.042 441.689C844.432 436.03 848.891 440.371 852.124 438.384C851.528 448.47 850.619 449.203 840.322 448.043C840.88 446.017 841.42 444.053 842.042 441.689Z" fill="#595959"></path>
  <path d="M675.779 439.174C678.958 438.959 681.766 438.959 684.591 438.959C683.077 449.86 683.378 449.098 672.78 447.86C673.672 444.983 674.54 442.185 675.779 439.174Z" fill="#595959"></path>
  <path d="M665.666 125.104C665.704 125.364 665.609 125.464 665.515 125.564C665.426 125.459 665.267 125.35 665.27 125.247C665.273 125.144 665.439 125.046 665.666 125.104Z" fill="white"></path>
  <path d="M569.719 507.441C569.929 507.384 570.349 507.615 570.589 508.051C570.249 508.081 570.089 507.905 569.719 507.441Z" fill="white"></path>
</svg>
